<?xml version="1.0" encoding="UTF-8" standalone="no"?>
<svg width="100px" height="106px" viewBox="0 0 100 106" version="1.1" xmlns="http://www.w3.org/2000/svg" xmlns:xlink="http://www.w3.org/1999/xlink">
    <!-- Generator: Sketch 43.1 (39012) - http://www.bohemiancoding.com/sketch -->
    <title>Logotype Source</title>
    <desc>Created with Sketch.</desc>
    <defs></defs>
    <g id="Symbols" stroke="none" stroke-width="1" fill="none" fill-rule="evenodd">
        <g id="Header" transform="translate(-157.000000, -7.000000)">
            <g id="Right-Side">
                <g transform="translate(157.000000, 7.000000)">
                    <g id="Logotype-Source">
                        <g id="Group-2">
                            <path d="M15.2898551,88.3044898 C15.3826092,88.4025583 15.4289855,88.5323529 15.4289855,88.6938776 C15.4289855,88.7400274 15.4173914,88.8207885 15.3942029,88.9361633 L11.8115942,101.22351 C11.7652172,101.36196 11.6927541,101.471564 11.5942029,101.552327 C11.4956517,101.633089 11.3884064,101.673469 11.2724638,101.673469 C11.1333326,101.673469 11.0173918,101.633089 10.9246377,101.552327 C10.8318836,101.471564 10.7681161,101.36196 10.7333333,101.22351 L7.77681159,90.8225306 L4.85507246,101.22351 C4.73912986,101.523484 4.55362446,101.673469 4.29855072,101.673469 C4.17101386,101.673469 4.05797151,101.630205 3.95942029,101.543673 C3.86086907,101.457142 3.79420307,101.350422 3.75942029,101.22351 L0.15942029,88.9361633 C0.136231768,88.8207885 0.124637681,88.7457961 0.124637681,88.7111837 C0.124637681,88.5496591 0.171014029,88.4169801 0.263768116,88.3131429 C0.356522203,88.2093056 0.484057159,88.1573878 0.646376812,88.1573878 C0.913044812,88.1573878 1.08115907,88.2900667 1.15072464,88.5554286 L4.29855072,99.3890612 L7.28985507,89.0053878 C7.31304359,88.913088 7.37391255,88.8352112 7.47246377,88.7717551 C7.57101499,88.708299 7.67246325,88.6765714 7.77681159,88.6765714 C7.8927542,88.6765714 7.99710099,88.708299 8.08985507,88.7717551 C8.18260916,88.8352112 8.24637664,88.9188566 8.28115942,89.0226939 L11.2724638,99.3890612 L14.4202899,88.5035102 C14.4434784,88.399673 14.5014488,88.3160275 14.5942029,88.2525714 C14.686957,88.1891153 14.7971008,88.1573878 14.9246377,88.1573878 C15.0753631,88.1573878 15.197101,88.2064213 15.2898551,88.3044898 Z M21.9942029,92.717551 C22.6608729,93.1155938 23.1797083,93.6664999 23.5507246,94.3702857 C23.921741,95.0740715 24.1072464,95.8759139 24.1072464,96.7758367 C24.1072464,96.9258239 24.06087,97.0440812 23.9681159,97.1306122 C23.8753619,97.2171433 23.7536239,97.2604082 23.6028986,97.2604082 L16.315942,97.2604082 C16.3507248,97.941119 16.5304332,98.5497116 16.8550725,99.0862041 C17.1797118,99.6226966 17.61449,100.040924 18.1594203,100.340898 C18.7043506,100.640872 19.3130401,100.790857 19.9855072,100.790857 C20.4376834,100.790857 20.8927513,100.71298 21.3507246,100.557224 C21.8086979,100.401469 22.1710132,100.196682 22.4376812,99.9428571 C22.5536238,99.8505574 22.6753617,99.8044082 22.8028986,99.8044082 C22.9304354,99.8044082 23.0347822,99.8390201 23.115942,99.9082449 C23.2434789,100.012082 23.3072464,100.133224 23.3072464,100.271673 C23.3072464,100.387048 23.255073,100.496653 23.1507246,100.60049 C22.7797083,100.935077 22.2956552,101.211972 21.6985507,101.431184 C21.1014463,101.650396 20.5304375,101.76 19.9855072,101.76 C19.0695606,101.76 18.255076,101.555213 17.542029,101.145633 C16.8289819,100.736052 16.2695672,100.164956 15.8637681,99.4323265 C15.457969,98.699697 15.2550725,97.8718958 15.2550725,96.948898 C15.2550725,96.0143627 15.4434764,95.1807928 15.8202899,94.4481633 C16.1971033,93.7155338 16.7246343,93.1444374 17.4028986,92.7348571 C18.0811628,92.3252769 18.8550681,92.1204898 19.7246377,92.1204898 C20.5710187,92.1204898 21.3275329,92.3195082 21.9942029,92.717551 Z M17.4376812,93.989551 C16.8173882,94.5894996 16.4492759,95.3798046 16.3333333,96.3604898 L23.0985507,96.3604898 C23.0173909,95.3798046 22.6695683,94.5894996 22.0550725,93.989551 C21.4405766,93.3896024 20.6637728,93.0896327 19.7246377,93.0896327 C18.8202853,93.0896327 18.0579741,93.3896024 17.4376812,93.989551 Z M26.7507246,101.491755 C26.6115935,101.370612 26.542029,101.206205 26.542029,100.998531 L26.542029,88.8323265 C26.542029,88.6361895 26.6057965,88.4746673 26.7333333,88.3477551 C26.8608702,88.2208429 27.0231874,88.1573878 27.2202899,88.1573878 L31.4463768,88.1573878 C32.1420325,88.1573878 32.7710117,88.3044883 33.3333333,88.5986939 C33.895655,88.8928994 34.3420273,89.2995892 34.6724638,89.8187755 C35.0029002,90.3379618 35.1681159,90.9205954 35.1681159,91.5666939 C35.1681159,92.1781799 35.0029002,92.7262017 34.6724638,93.2107755 C34.3420273,93.6953494 33.8985535,94.0703116 33.342029,94.3356735 C34.142033,94.5548854 34.7739107,94.950038 35.2376812,95.5211429 C35.7014516,96.0922478 35.9333333,96.8104447 35.9333333,97.6757551 C35.9333333,98.4487658 35.753625,99.1381194 35.3942029,99.7438367 C35.0347808,100.349554 34.5391336,100.822583 33.9072464,101.162939 C33.2753592,101.503294 32.5536272,101.673469 31.742029,101.673469 L27.3072464,101.673469 C27.0753612,101.673469 26.8898558,101.612899 26.7507246,101.491755 Z M31.4463768,93.7991837 C32.1536267,93.7991837 32.7304326,93.6001653 33.1768116,93.2021224 C33.6231906,92.8040796 33.8463768,92.2589422 33.8463768,91.5666939 C33.8463768,90.8975205 33.6260892,90.378342 33.1855072,90.0091429 C32.7449253,89.6399437 32.165221,89.4553469 31.4463768,89.4553469 L27.8985507,89.4553469 L27.8985507,93.7991837 L31.4463768,93.7991837 Z M31.742029,100.37551 C32.58841,100.37551 33.2753597,100.130343 33.8028986,99.64 C34.3304374,99.1496574 34.5942029,98.4949157 34.5942029,97.6757551 C34.5942029,96.891207 34.3304374,96.2653085 33.8028986,95.7980408 C33.2753597,95.3307732 32.58841,95.0971429 31.742029,95.0971429 L27.8985507,95.0971429 L27.8985507,100.37551 L31.742029,100.37551 Z M46.9072464,92.3887347 C47.0347832,92.5098782 47.0985507,92.668516 47.0985507,92.8646531 L47.0985507,100.998531 C47.0985507,101.194668 47.0347832,101.35619 46.9072464,101.483102 C46.7797095,101.610014 46.6173923,101.673469 46.4202899,101.673469 C46.2231874,101.673469 46.0637687,101.610014 45.942029,101.483102 C45.8202892,101.35619 45.7594203,101.194668 45.7594203,100.998531 L45.7594203,100.410122 C45.3768097,100.837009 44.9130462,101.171591 44.3681159,101.413878 C43.8231857,101.656164 43.2318872,101.777306 42.5942029,101.777306 C41.7710104,101.777306 41.0318873,101.604247 40.3768116,101.258122 C39.7217359,100.911998 39.2086975,100.407241 38.8376812,99.7438367 C38.4666648,99.0804321 38.2811594,98.2872427 38.2811594,97.3642449 L38.2811594,92.8646531 C38.2811594,92.6800535 38.3449269,92.5243 38.4724638,92.3973878 C38.6000006,92.2704756 38.7565208,92.2070204 38.942029,92.2070204 C39.1391314,92.2070204 39.3014486,92.2704756 39.4289855,92.3973878 C39.5565224,92.5243 39.6202899,92.6800535 39.6202899,92.8646531 L39.6202899,97.3642449 C39.6202899,98.39108 39.9072435,99.172732 40.4811594,99.7092245 C41.0550753,100.245717 41.8057925,100.513959 42.7333333,100.513959 C43.3014521,100.513959 43.8144905,100.404355 44.2724638,100.185143 C44.7304371,99.9659309 45.0927523,99.6630768 45.3594203,99.2765714 C45.6260883,98.8900661 45.7594203,98.4603017 45.7594203,97.9872653 L45.7594203,92.8646531 C45.7594203,92.668516 45.8202892,92.5098782 45.942029,92.3887347 C46.0637687,92.2675912 46.2231874,92.2070204 46.4202899,92.2070204 C46.6173923,92.2070204 46.7797095,92.2675912 46.9072464,92.3887347 Z M58.0724638,92.7608163 C58.0724638,92.8646536 58.0492756,92.9684893 58.0028986,93.0723265 L52.3681159,105.394286 C52.2637676,105.659648 52.0956533,105.792327 51.8637681,105.792327 C51.7478255,105.792327 51.6434787,105.769252 51.5507246,105.723102 C51.2840566,105.619265 51.1507246,105.446205 51.1507246,105.203918 C51.1507246,105.100081 51.1739128,104.996245 51.2202899,104.892408 L52.942029,101.102367 L52.942029,101.085061 L49.0637681,93.0896327 C49.0173911,92.9973329 48.9942029,92.8934972 48.9942029,92.7781224 C48.9942029,92.5358355 49.1217379,92.362776 49.3768116,92.2589388 C49.4695657,92.2127889 49.5739125,92.1897143 49.6898551,92.1897143 C49.9333346,92.1897143 50.1072459,92.3108559 50.2115942,92.5531429 L53.6028986,99.6659592 L56.8376812,92.570449 C56.9536238,92.3166246 57.1275351,92.1897143 57.3594203,92.1897143 C57.4637686,92.1897143 57.5681154,92.2127889 57.6724638,92.2589388 C57.9391318,92.362776 58.0724638,92.5300669 58.0724638,92.7608163 Z M62.6202899,100.929306 C61.5941978,100.31782 60.7855102,99.4813659 60.1942029,98.4199184 C59.6028956,97.3584709 59.3072464,96.187435 59.3072464,94.9067755 C59.3072464,93.6376535 59.6028956,92.4752706 60.1942029,91.4195918 C60.7855102,90.3639131 61.5941978,89.5274589 62.6202899,88.9102041 C63.6463819,88.2929493 64.7797039,87.9843265 66.0202899,87.9843265 C66.9014537,87.9843265 67.6637649,88.0996995 68.3072464,88.330449 C68.9507279,88.5611984 69.6028952,88.9419293 70.2637681,89.4726531 C70.4028992,89.5764903 70.4956519,89.6832103 70.542029,89.7928163 C70.588406,89.9024223 70.6115942,90.0322169 70.6115942,90.1822041 C70.6115942,90.4129535 70.5275371,90.603319 70.3594203,90.7533061 C70.1913035,90.9032933 69.9971026,90.9782857 69.7768116,90.9782857 C69.5565206,90.9782857 69.3536241,90.9032933 69.1681159,90.7533061 C68.6927512,90.3494946 68.2289878,90.0581778 67.7768116,89.8793469 C67.3246354,89.7005161 66.739134,89.611102 66.0202899,89.611102 C65.1159375,89.611102 64.2840618,89.8476167 63.5246377,90.3206531 C62.7652136,90.7936894 62.1623211,91.4368939 61.715942,92.2502857 C61.269563,93.0636775 61.0463768,93.9491653 61.0463768,94.9067755 C61.0463768,95.8759232 61.269563,96.7642953 61.715942,97.5719184 C62.1623211,98.3795415 62.7652136,99.0198616 63.5246377,99.492898 C64.2840618,99.9659343 65.1159375,100.202449 66.0202899,100.202449 C67.1333389,100.202449 68.1999949,99.8217181 69.2202899,99.0602449 C69.4173923,98.9217952 69.6086947,98.8525714 69.7942029,98.8525714 C70.0144939,98.8525714 70.1971007,98.9304482 70.342029,99.0862041 C70.4869572,99.24196 70.5594203,99.446747 70.5594203,99.7005714 C70.5594203,99.9428584 70.4666676,100.156298 70.2811594,100.340898 C69.0289792,101.344658 67.6087036,101.846531 66.0202899,101.846531 C64.7797039,101.846531 63.6463819,101.540792 62.6202899,100.929306 Z M79.315942,92.7694694 C80.0405833,93.1905871 80.6144906,93.7674521 81.0376812,94.5000816 C81.4608717,95.2327111 81.6724638,96.0489751 81.6724638,96.948898 L81.6724638,100.808163 C81.6724638,101.061988 81.5884066,101.272543 81.4202899,101.439837 C81.2521731,101.60713 81.040581,101.690776 80.7855072,101.690776 C80.5304335,101.690776 80.3188414,101.60713 80.1507246,101.439837 C79.9826079,101.272543 79.8985507,101.061988 79.8985507,100.808163 L79.8985507,100.167837 C79.4927516,100.663948 79.0000029,101.050448 78.4202899,101.327347 C77.8405768,101.604246 77.2144961,101.742694 76.542029,101.742694 C75.7072422,101.742694 74.950728,101.535022 74.2724638,101.119673 C73.5941995,100.704324 73.0608715,100.130344 72.6724638,99.3977143 C72.284056,98.6650848 72.0898551,97.8488208 72.0898551,96.948898 C72.0898551,96.0489751 72.2985486,95.2327111 72.715942,94.5000816 C73.1333354,93.7674521 73.7101412,93.1905871 74.4463768,92.7694694 C75.1826124,92.3483516 75.997097,92.1377959 76.8898551,92.1377959 C77.7826132,92.1377959 78.5913007,92.3483516 79.315942,92.7694694 Z M78.4637681,99.7611429 C78.9333357,99.4784748 79.3014479,99.0919752 79.5681159,98.6016327 C79.8347839,98.1112901 79.9681159,97.560384 79.9681159,96.948898 C79.9681159,96.3374119 79.8347839,95.7836215 79.5681159,95.2875102 C79.3014479,94.7913989 78.9333357,94.402015 78.4637681,94.1193469 C77.9942006,93.8366789 77.4695681,93.6953469 76.8898551,93.6953469 C76.310142,93.6953469 75.7855096,93.8366789 75.315942,94.1193469 C74.8463745,94.402015 74.4753637,94.7913989 74.2028986,95.2875102 C73.9304334,95.7836215 73.7942029,96.3374119 73.7942029,96.948898 C73.7942029,97.560384 73.9304334,98.1112901 74.2028986,98.6016327 C74.4753637,99.0919752 74.8463745,99.4784748 75.315942,99.7611429 C75.7855096,100.043811 76.310142,100.185143 76.8898551,100.185143 C77.4695681,100.185143 77.9942006,100.043811 78.4637681,99.7611429 Z M90.4202899,92.3800816 C90.7681177,92.5646812 90.942029,92.7954272 90.942029,93.0723265 C90.942029,93.1530888 90.9362319,93.2107753 90.9246377,93.2453878 C90.8202893,93.6145869 90.5884076,93.7991837 90.2289855,93.7991837 C90.1710142,93.7991837 90.0840586,93.7876464 89.9681159,93.7645714 C89.5043455,93.6838091 89.1275377,93.6434286 88.8376812,93.6434286 C88.0028944,93.6434286 87.3304373,93.833794 86.8202899,94.2145306 C86.3101424,94.5952672 86.0550725,95.108677 86.0550725,95.7547755 L86.0550725,100.808163 C86.0550725,101.085063 85.9826094,101.298503 85.8376812,101.44849 C85.6927529,101.598477 85.4753638,101.673469 85.1855072,101.673469 C84.907245,101.673469 84.6927544,101.601361 84.542029,101.457143 C84.3913036,101.312924 84.315942,101.0966 84.315942,100.808163 L84.315942,93.0723265 C84.315942,92.7954272 84.3913036,92.5819871 84.542029,92.432 C84.6927544,92.2820129 84.907245,92.2070204 85.1855072,92.2070204 C85.7652203,92.2070204 86.0550725,92.4954529 86.0550725,93.0723265 L86.0550725,93.4011429 C86.4029003,92.9973313 86.8318815,92.6800556 87.342029,92.4493061 C87.8521765,92.2185567 88.3970986,92.1031837 88.9768116,92.1031837 C89.5913074,92.1031837 90.072462,92.1954821 90.4202899,92.3800816 Z M94.0028986,101.379265 C93.3072429,101.136978 92.7623208,100.819703 92.3681159,100.427429 C92.2173906,100.277441 92.142029,100.098613 92.142029,99.8909388 C92.142029,99.6140394 92.2579699,99.3890621 92.4898551,99.216 C92.710146,99.0544754 92.9130426,98.9737143 93.0985507,98.9737143 C93.3304359,98.9737143 93.5507236,99.07755 93.7594203,99.2852245 C93.9797112,99.5275114 94.3101427,99.7380671 94.7507246,99.916898 C95.1913066,100.095729 95.6608671,100.185143 96.1594203,100.185143 C96.8202932,100.185143 97.3333315,100.075539 97.6985507,99.8563265 C98.0637699,99.6371146 98.2463768,99.3429134 98.2463768,98.9737143 C98.2463768,98.6160526 98.0666685,98.3189672 97.7072464,98.082449 C97.3478243,97.8459308 96.7391347,97.6469124 95.8811594,97.4853878 C93.6550613,97.0585013 92.542029,96.1470546 92.542029,94.7510204 C92.542029,94.1856842 92.7101432,93.7068863 93.0463768,93.3146122 C93.3826104,92.9223382 93.8231857,92.628137 94.3681159,92.432 C94.9130462,92.235863 95.4927506,92.1377959 96.1072464,92.1377959 C96.8608733,92.1377959 97.5362289,92.2589376 98.1333333,92.5012245 C98.7304378,92.7435114 99.2028968,93.0780931 99.5507246,93.5049796 C99.70145,93.6895792 99.7768116,93.8741759 99.7768116,94.0587755 C99.7768116,94.2549125 99.6782619,94.4337407 99.4811594,94.5952653 C99.3536226,94.6875651 99.1913053,94.7337143 98.9942029,94.7337143 C98.6927521,94.7337143 98.4202911,94.6241099 98.1768116,94.404898 C97.8869551,94.1395361 97.5797118,93.952055 97.2550725,93.842449 C96.9304332,93.732843 96.5362342,93.6780408 96.0724638,93.6780408 C95.5391278,93.6780408 95.101451,93.7674549 94.7594203,93.9462857 C94.4173896,94.1251165 94.2463768,94.3760528 94.2463768,94.699102 C94.2463768,94.9298515 94.3043472,95.1231013 94.4202899,95.2788571 C94.5362325,95.434613 94.7565201,95.5788293 95.0811594,95.7115102 C95.4057987,95.8441911 95.8753592,95.9739858 96.4898551,96.100898 C97.7536295,96.3547224 98.6492727,96.70661 99.1768116,97.1565714 C99.7043505,97.6065329 99.9681159,98.1891665 99.9681159,98.9044898 C99.9681159,99.4352135 99.8231899,99.9168958 99.5333333,100.349551 C99.2434768,100.782206 98.8173941,101.122557 98.2550725,101.370612 C97.6927508,101.618668 97.0173952,101.742694 96.2289855,101.742694 C95.4405758,101.742694 94.6985542,101.621552 94.0028986,101.379265 Z" id="WeBuyCars" fill="#000000"></path>
                            <g id="Group" transform="translate(8.333333, 0.000000)">
                                <path d="M21.4741295,32.4827762 C9.50503398,33.1300258 0,42.9929074 0,55.0649351 C0,67.5553824 10.1753466,77.6808905 22.7272727,77.6808905 C30.6860142,77.6808905 37.6892784,73.6100426 41.7490119,67.4466627 C39.4060394,63.8896224 38.0434783,59.635621 38.0434783,55.0649351 C38.0434783,51.5189618 38.8635732,48.1635938 40.3253206,45.1763996 C32.0151165,44.5995152 24.9361201,39.5769365 21.4741295,32.4827762 L21.4741295,32.4827762 Z" id="Combined-Shape" fill="#51E3C2"></path>
                                <path d="M21.4741295,32.4827762 C20.0190252,29.5010397 19.2028986,26.1533391 19.2028986,22.6159555 C19.2028986,10.1255082 29.3782451,0 41.9301713,0 C54.4820974,0 64.657444,10.1255082 64.657444,22.6159555 C64.657444,26.1619287 63.837349,29.5172967 62.3756017,32.5044909 C61.8454557,32.4676888 61.310299,32.4489796 60.770751,32.4489796 C52.8120095,32.4489796 45.8087453,36.5198275 41.7490119,42.6832074 C37.6892784,36.5198275 30.6860142,32.4489796 22.7272727,32.4489796 C22.3067936,32.4489796 21.8889815,32.4603424 21.4741295,32.4827762 L21.4741295,32.4827762 Z" id="Combined-Shape" fill="#FFCD00"></path>
                                <path d="M41.7490119,67.4466627 C45.8087453,73.6100426 52.8120095,77.6808905 60.770751,77.6808905 C73.3226771,77.6808905 83.4980237,67.5553824 83.4980237,55.0649351 C83.4980237,43.1113931 74.1786559,33.3238449 62.3756017,32.5044909 C58.8609283,39.6869987 51.6366715,44.7409844 43.1833145,45.1981143 C44.6384188,48.1798508 45.4545455,51.5275515 45.4545455,55.0649351 C45.4545455,59.635621 44.0919844,63.8896224 41.7490141,67.4466592 L41.7490119,67.4466627 Z" id="Combined-Shape" fill="#7ED321"></path>
                                <path d="M42.5053992,43.9155926 C44.3826107,47.2060013 45.4545455,51.0108994 45.4545455,55.0649351 C45.4545455,59.6356225 44.0919835,63.8896252 41.7490119,67.4466627 C39.4060394,63.8896224 38.0434783,59.635621 38.0434783,55.0649351 C38.0434783,51.0066055 39.1176849,47.1979415 40.9985921,43.9051391 C40.7611305,44.3208502 40.5365276,44.7447817 40.3253206,45.1763996 C40.8554666,45.2132017 41.3906233,45.2319109 41.9301713,45.2319109 C42.3506504,45.2319109 42.7684625,45.2205482 43.1833145,45.1981143 C42.9707891,44.7626166 42.7446335,44.3349265 42.5053991,43.9155925 L42.5053992,43.9155926 Z" id="Combined-Shape" fill="#24BB1A"></path>
                                <path d="M40.9985931,43.9051371 C44.9066128,37.0635799 52.2971306,32.4489796 60.770751,32.4489796 C61.310299,32.4489796 61.8454557,32.4676888 62.3756017,32.5044909 C58.6884442,40.0394832 50.9186706,45.2319109 41.9301713,45.2319109 C41.6603973,45.2319109 41.3917211,45.2272336 41.1242202,45.2179561 C41.3917211,45.2272336 41.6603973,45.2319109 41.9301713,45.2319109 C42.3506504,45.2319109 42.7684625,45.2205482 43.1833145,45.1981143 C42.7582641,44.3271198 42.2786916,43.4873532 41.7490119,42.6832074 C41.4863728,43.0819393 41.2360536,43.4894281 40.9985924,43.9051385 L40.9985931,43.9051371 Z" id="Combined-Shape" fill="#7EA902"></path>
                                <path d="M42.5053991,43.9155925 C42.2661648,43.4962584 42.0138517,43.0852803 41.7490119,42.6832074 C41.2237337,43.4806712 40.7477353,44.3131625 40.3253206,45.1763996 C40.5903936,45.1948007 40.8567193,45.2086785 41.1242202,45.2179561 C32.4703959,44.9178192 25.0465477,39.8032199 21.4741295,32.4827762 L21.4741295,32.4827762 C21.8889815,32.4603424 22.3067936,32.4489796 22.7272727,32.4489796 C31.2052089,32.4489796 38.5989389,37.0682817 42.5053991,43.9155925 Z M43.1833145,45.1981143 C42.7684625,45.2205482 42.3506504,45.2319109 41.9301713,45.2319109 C41.660396,45.2319109 41.3917185,45.2272336 41.1242163,45.2179559 Z" id="Combined-Shape" fill="#50B602"></path>
                                <path d="M43.183314,45.1981134 C42.7582641,44.3271198 42.2786916,43.4873532 41.7490119,42.6832074 C41.2237337,43.4806712 40.7477353,44.3131625 40.3253206,45.1763996 C40.8554666,45.2132017 41.3906233,45.2319109 41.9301713,45.2319109 C42.3506504,45.2319109 42.7684625,45.2205482 43.1833145,45.1981143 L43.183314,45.1981134 Z" id="Combined-Shape" fill="#279601"></path>
                            </g>
                            <g id="auction" transform="translate(57.246377, 43.265306)" fill-rule="nonzero" fill="#000000">
                                <path d="M23.1981763,9.88534538 C22.4316915,9.12252178 21.305708,8.98537186 20.4152094,9.40959444 L14.4561015,3.47960865 C14.8888079,2.57560416 14.7301424,1.45883275 13.9790312,0.711404518 C13.0259644,-0.237134839 11.4749858,-0.237134839 10.5218214,0.711404518 L7.06456268,4.15166269 C6.11144705,5.10010492 6.11144705,6.64343008 7.06456268,7.5918723 C7.81377042,8.3375036 8.93428769,8.498985 9.846407,8.06660336 L11.0980149,9.31207424 L0.716575405,19.6426105 C-0.238785259,20.5932382 -0.238931675,22.1320467 0.716575405,23.0828201 C1.67193607,24.0335449 3.21827821,24.0336906 4.17378529,23.0828201 L14.5552248,12.7523324 L15.8066862,13.997609 C15.3738822,14.9016621 15.5325477,16.0183849 16.2837077,16.7658617 C16.7454043,17.2252945 17.3593242,17.4784197 18.012337,17.4784197 C18.6653498,17.4784197 19.2791721,17.2253917 19.7409176,16.7658617 L23.1981274,13.3256036 C24.1513407,12.3771128 24.1513407,10.8338847 23.1981763,9.88534538 Z M9.36943434,6.44513577 C9.05171286,6.7612508 8.53471999,6.76115367 8.21699851,6.44513577 C7.89932584,6.12892361 7.89932584,5.61456283 8.21699851,5.29839923 L11.6742084,1.85814105 C11.9918811,1.54202602 12.5087763,1.54188033 12.8265954,1.85814105 C13.1443169,2.17430465 13.1443169,2.68871399 12.8266442,3.00487759 L9.36943434,6.44513577 Z M3.02139826,21.9359864 C2.7028959,22.2528785 2.1875136,22.2529271 1.86901124,21.9359864 C1.55055768,21.6190944 1.55050888,21.106142 1.86901124,20.7892499 L12.2504507,10.4587136 L13.4028377,11.6054987 L3.02139826,21.9359864 Z M11.0980149,7.01850404 L11.6741596,6.4450872 L13.4027889,4.72493383 L19.1648217,10.4587622 L16.8600476,12.7522839 L11.0980149,7.01850404 Z M22.045838,12.1789156 L18.5886282,15.6191738 C18.2701258,15.9361144 17.7547435,15.9361144 17.4362411,15.6191738 C17.1185197,15.3030102 17.1185197,14.7885523 17.4362411,14.4723887 L20.8934998,11.0321305 C21.2119046,10.7151898 21.7273845,10.7152384 22.045838,11.0321305 C22.3643404,11.3490226 22.3643404,11.8619264 22.045838,12.1789156 Z" id="Shape"></path>
                                <path d="M21.8685335,19.4693878 L15.4503071,19.4693878 C14.1231853,19.4693878 13.0434783,20.5207021 13.0434783,21.8129252 L13.0434783,23.375299 C13.0434783,23.8067263 13.4027079,24.1564626 13.8457385,24.1564626 L23.473102,24.1564626 C23.9161807,24.1564626 24.2753623,23.8066795 24.2753623,23.375299 L24.2753623,21.8129252 C24.2754104,20.5207021 23.1957034,19.4693878 21.8685335,19.4693878 Z M22.6708418,22.5940887 L14.6480469,22.5940887 L14.6480469,21.8129252 C14.6480469,21.3821998 15.0079492,21.0317616 15.4503071,21.0317616 L21.8685335,21.0317616 C22.3108914,21.0317616 22.6707937,21.3821998 22.6707937,21.8129252 L22.6707937,22.5940887 L22.6708418,22.5940887 Z" id="Shape"></path>
                            </g>
                            <g id="car-wheel-—-копия" transform="translate(17.391304, 41.462585)" fill-rule="nonzero" fill="#000000">
                                <path d="M17.6017982,6.69828496 C17.5883137,6.68928944 17.5745279,6.68066874 17.5602147,6.67242285 C17.5466549,6.66462674 17.5330197,6.65735537 17.5191585,6.65060873 C16.3590392,5.99048789 15.01654,5.61297614 13.5871072,5.61297614 C12.1573731,5.61297614 10.8144972,5.99071278 9.65415184,6.65105851 C9.640592,6.65773018 9.62725816,6.66485163 9.61399966,6.67242285 C9.59998783,6.68036889 9.58642799,6.68891463 9.57324481,6.69768526 C7.22211977,8.07257468 5.64044013,10.6161314 5.64044013,13.5204082 C5.64044013,16.424685 7.22204444,18.9681667 9.57316948,20.3430561 C9.58635266,20.3519767 9.59998783,20.3603725 9.61399966,20.3684684 C9.62725816,20.3761896 9.64074267,20.3832361 9.65430251,20.3899077 C10.8146479,21.0502535 12.1573731,21.4279152 13.5871072,21.4279152 C15.0166153,21.4279152 16.3588885,21.0504784 17.5190079,20.3903575 C17.5329444,20.3835359 17.5465795,20.3762645 17.5602147,20.3684684 C17.5744525,20.3602975 17.588389,20.3516018 17.6019489,20.3425314 C19.9522453,18.9674171 21.5334729,16.4241602 21.5334729,13.5204082 C21.5335482,10.6165062 19.9524713,8.07324934 17.6017982,6.69828496 Z M13.5871072,6.96237827 C14.5448837,6.96237827 15.4556527,7.16680134 16.2775295,7.53396825 L14.4974996,10.6019634 C14.209805,10.5129078 13.9039554,10.4648568 13.5871072,10.4648568 C13.2701837,10.4648568 12.9644847,10.5129078 12.6766395,10.6018885 L10.8966849,7.53389329 C11.718637,7.16672637 12.6293307,6.96237827 13.5871072,6.96237827 Z M15.3017486,13.5204082 C15.3017486,14.461339 14.5326045,15.2267823 13.5871072,15.2267823 C12.6415346,15.2267823 11.8721645,14.461339 11.8721645,13.5204082 C11.8721645,12.5795523 12.6414592,11.814109 13.5871072,11.814109 C14.5326045,11.814184 15.3017486,12.5796273 15.3017486,13.5204082 Z M9.72345767,8.21035598 L11.5031863,11.2779763 C11.055335,11.6902707 10.7308782,12.2335249 10.5916639,12.8457446 L7.03107674,12.8457446 C7.22739304,10.9429684 8.24453147,9.27872324 9.72345767,8.21035598 Z M7.03107674,14.1950717 L10.5916639,14.1950717 C10.7308782,14.8073664 11.0554103,15.3505456 11.5032616,15.762915 L9.72353301,18.8305353 C8.24453147,17.762168 7.22739304,16.0978479 7.03107674,14.1950717 Z M13.5871072,20.078588 C12.6293307,20.078588 11.7185617,19.8741649 10.8966849,19.507073 L12.6766395,16.4390778 C12.9644847,16.5281334 13.2701837,16.5761095 13.5871072,16.5761095 C13.9039554,16.5761095 14.209805,16.5280584 14.4974996,16.4390028 L16.2775295,19.506998 C15.4556527,19.8741649 14.5448837,20.078588 13.5871072,20.078588 Z M17.4507567,18.8304604 L15.6709528,15.762765 C16.1185781,15.3504706 16.4431102,14.8072165 16.5823245,14.1950717 L20.1429116,14.1950717 C19.9465953,16.0976231 18.9293816,17.7620931 17.4507567,18.8304604 Z M16.5823245,12.8457446 C16.4431102,12.2335998 16.1186534,11.6904207 15.6709528,11.2780513 L17.4507567,8.21043094 C18.9293816,9.27879821 19.9465953,10.9431933 20.1428363,12.8457446 L16.5823245,12.8457446 Z M23.7562315,12.0666581 C23.7090734,12.0765531 23.6619906,12.0812758 23.6157365,12.0812758 C23.301977,12.0812758 23.020309,11.8632845 22.9529618,11.5455929 C22.1723672,7.86043046 19.2750067,4.97729312 15.5716646,4.20045548 C15.205323,4.12361879 14.9708132,3.76567228 15.0481043,3.40112906 C15.1253953,3.03658583 15.4848064,2.80315223 15.8513739,2.88013884 C20.0801597,3.76717153 23.3885339,7.0593799 24.2798672,11.2673316 C24.3570829,11.6319498 24.1226484,11.9897464 23.7562315,12.0666581 Z M12.1258841,23.6397622 C12.0585369,23.9573789 11.776869,24.1754451 11.4631847,24.1754451 C11.4168553,24.1754451 11.3697725,24.1707225 11.3226144,24.1608274 C7.09405464,23.2737947 3.78575578,19.9816613 2.89427184,15.7737096 C2.81705611,15.4091664 3.05141529,15.0512198 3.41783221,14.9743832 C3.78424913,14.8976214 4.14388614,15.1307552 4.22110188,15.4953734 C5.00184715,19.1805358 7.89913229,22.0635982 11.6023237,22.8403608 C11.9686653,22.9172725 12.2030998,23.275144 12.1258841,23.6397622 Z M13.5858265,12.8457446 L13.5881618,12.8457446 C13.9626393,12.8457446 14.2661537,13.147769 14.2661537,13.5204082 C14.2661537,13.8930473 13.9626393,14.1950717 13.5881618,14.1950717 C13.2136843,14.1950717 12.9089647,13.8930473 12.9089647,13.5204082 C12.9089647,13.147769 13.211349,12.8457446 13.5858265,12.8457446 Z M13.5871072,0 C6.09514666,0 0,6.06522563 0,13.5204082 C0,20.9755907 6.09514666,27.0408163 13.5871072,27.0408163 C21.078917,27.0408163 27.173913,20.9755907 27.173913,13.5204082 C27.173913,6.06522563 21.078917,0 13.5871072,0 Z M13.5871072,25.6915641 C6.842821,25.6915641 1.35598368,20.2316617 1.35598368,13.5204831 C1.35598368,6.8093046 6.842821,1.34932717 13.5871072,1.34932717 C20.3311674,1.34932717 25.8179294,6.80922964 25.8179294,13.5204082 C25.8179294,20.2315867 20.3312427,25.6915641 13.5871072,25.6915641 Z" id="Shape"></path>
                            </g>
                            <g id="light-bulb-on" transform="translate(36.956522, 8.653061)" fill-rule="nonzero" fill="#000000">
                                <path d="M18.2393265,3.23673234 L18.9963773,1.97238847 C19.1681455,1.66576242 19.5466925,1.56147778 19.8552182,1.73216442 C20.163744,1.90285106 20.2687326,2.27901452 20.0969645,2.58559761 L19.3399137,3.84994148 C19.2381235,4.0554183 18.9963773,4.15656753 18.7895985,4.15656753 C18.6878083,4.15656753 18.5828197,4.12177735 18.4810727,4.08703012 C18.1693485,3.91947889 18.0675583,3.5464938 18.2393265,3.23673234 Z M7.10931847,3.85311985 C7.21110862,4.05859667 7.45285484,4.15974589 7.65963366,4.15974589 C7.76142381,4.15974589 7.86641247,4.12495571 7.96820263,4.09020848 C8.2767716,3.91952185 8.38171704,3.54335839 8.20994885,3.23677529 L7.45289807,1.97243142 C7.28112988,1.66580537 6.90258287,1.56152074 6.59405712,1.73220737 C6.28553138,1.90289401 6.18054272,2.27905747 6.35231091,2.58564056 L7.10931847,3.85311985 Z M13.2230384,2.69306061 C13.5665748,2.69306061 13.8401332,2.42122475 13.8401332,2.07985147 L13.8401332,0.613209141 C13.8401332,0.271835866 13.5665748,0 13.2230384,0 C12.8795021,0 12.6059437,0.271835866 12.6059437,0.613209141 L12.6059437,2.07985147 C12.5709331,2.41808934 12.8444914,2.69306061 13.2230384,2.69306061 Z M2.09303038,12.4886439 L0.617094721,12.4886439 C0.273558345,12.4886439 0,12.7604798 0,13.1018531 C0,13.4432263 0.273558345,13.7150622 0.617094721,13.7150622 L2.09303038,13.7150622 C2.43656676,13.7150622 2.7101251,13.4432263 2.7101251,13.1018531 C2.7101251,12.7604798 2.43656676,12.4886439 2.09303038,12.4886439 Z M25.8321806,12.4886439 L24.356245,12.4886439 C24.0127086,12.4886439 23.7391503,12.7604798 23.7391503,13.1018531 C23.7391503,13.4432263 24.0127086,13.7150622 24.356245,13.7150622 L25.8321806,13.7150622 C26.175717,13.7150622 26.4492754,13.4432263 26.4492754,13.1018531 C26.4492754,12.7604798 26.175717,12.4886439 25.8321806,12.4886439 Z M24.6965829,6.54935882 C24.5248147,6.24273278 24.1462677,6.13844814 23.8377419,6.30913477 L22.5653866,7.06141873 C22.2568608,7.23210537 22.1518722,7.60826883 22.3236403,7.91485192 C22.4254305,8.12032874 22.6671767,8.22147797 22.8739555,8.22147797 C22.9757457,8.22147797 23.0807344,8.18668779 23.1824813,8.15194056 L24.4548366,7.3996566 C24.7665609,7.23210537 24.868351,6.85594192 24.6965829,6.54935882 Z M21.3311971,13.035494 C21.3311971,14.4357773 20.9526501,15.8012704 20.2655774,17.030867 C20.23061,17.1320163 20.1955993,17.2015537 20.1287766,17.2710911 L20.0587986,17.3722403 C19.7852402,17.783151 19.5084834,18.1909263 19.164947,18.5322995 C17.9625697,20.2044187 17.3454749,21.6394492 17.3772871,22.5592844 L17.3772871,22.5940746 C17.3772871,22.663612 17.4122977,22.7647612 17.4122977,22.8659104 L17.4122977,25.8023735 C17.4122977,27.0983292 16.3466779,28.122449 15.0775211,28.122449 L11.2668088,28.122449 C9.96264136,28.122449 8.93203223,27.063539 8.93203223,25.8023735 L8.93203223,22.8659104 L8.93203223,22.6952238 L8.93203223,22.5593273 C8.96704286,21.671104 8.34674963,20.2708636 7.21435035,18.6334917 C6.83580334,18.222581 6.45729956,17.7800585 6.18374122,17.2679986 C6.14877381,17.1984612 6.11376319,17.1668494 6.08195106,17.097312 C5.35986768,15.8677153 4.9813639,14.467475 4.9813639,13.0703271 C4.9813639,8.59768438 8.65851711,4.94686299 13.1563021,4.94686299 C17.6540439,4.91202985 21.3311971,8.56285125 21.3311971,13.035494 Z M16.1430976,23.2071978 L10.2011891,23.2071978 L10.2011891,24.367257 L16.1430976,24.367257 L16.1430976,23.2071978 L16.1430976,23.2071978 Z M16.1430976,25.871825 L16.1430976,25.6316009 L10.2011891,25.6316009 L10.2011891,25.871825 C10.2711671,26.4186751 10.7164936,26.8264074 11.2668088,26.8264074 L15.0807196,26.8264074 C15.6277931,26.8264074 16.0763181,26.4186751 16.1430976,25.871825 Z M20.0587986,13.035494 C20.0587986,9.2455978 16.9669712,6.17319537 13.1530172,6.17319537 C9.33906319,6.17319537 6.24727902,9.2455978 6.24727902,13.035494 C6.24727902,14.2650907 6.5908154,15.4598971 7.20791012,16.5188071 L7.20791012,16.5188071 C7.20791012,16.5188071 7.20791012,16.5188071 7.20791012,16.5535544 C7.48146847,16.9960769 7.79319272,17.4069875 8.13672909,17.783151 C8.17173972,17.8179412 8.17173972,17.8179412 8.20670712,17.8526884 C9.33910641,19.4584056 9.99436704,20.8238987 10.1661352,21.9492107 L16.1781083,21.9492107 C16.3848871,20.5489274 17.3455182,18.9463886 18.2043591,17.7515392 C18.2043591,17.716749 18.2393697,17.716749 18.2743371,17.6820018 C18.5829061,17.3753757 18.8596197,16.9992552 19.0632,16.6230918 C19.0632,16.5883016 19.0982107,16.5883016 19.0982107,16.5535544 C19.0982107,16.5187642 19.1332213,16.5188071 19.1332213,16.4840169 C19.7502728,15.4598971 20.0587986,14.2650907 20.0587986,13.035494 Z M3.8806903,7.06141873 L2.60833495,6.30913477 C2.29976598,6.13844814 1.92126219,6.23959736 1.74949401,6.54935882 C1.57772582,6.85598487 1.67951598,7.23210537 1.99124023,7.40279201 L3.26359557,8.15507597 C3.36538573,8.22461338 3.47037439,8.22461338 3.57216455,8.22461338 C3.77894336,8.22461338 4.01749108,8.12346415 4.12247974,7.91798733 C4.29104942,7.60826883 4.18925927,7.23210537 3.8806903,7.06141873 Z" id="Shape"></path>
                            </g>
                        </g>
                    </g>
                </g>
            </g>
        </g>
    </g>
</svg>