<?xml version="1.0" encoding="utf-8"?>
<!-- Generator: Adobe Illustrator 16.0.0, SVG Export Plug-In . SVG Version: 6.00 Build 0)  -->
<!DOCTYPE svg PUBLIC "-//W3C//DTD SVG 1.1//EN" "http://www.w3.org/Graphics/SVG/1.1/DTD/svg11.dtd">
<svg version="1.1" id="Layer_1" xmlns="http://www.w3.org/2000/svg" xmlns:xlink="http://www.w3.org/1999/xlink" x="0px" y="0px"
	 width="840.797px" height="316.469px" viewBox="91.602 226.158 840.797 316.469"
	 enable-background="new 91.602 226.158 840.797 316.469" xml:space="preserve">
<g>
	<g>
		<g>
			<path fill="#FFD702" d="M445.905,401.222c0,0-0.838-21.597,0-21.597s12.567,6.795,12.567,6.795h97.188l7.819,10.055
				l-22.435,48.779l-57.903,2.606L445.905,401.222z"/>
			<path fill="#FFD702" d="M745.565,331.403l-3.165-4.282c-4.282-5.306-10.147-9.588-16.57-11.729l-92.998-29.882
				c-1.024-0.559-2.141-1.024-2.699-1.583l-56.6-50.734c-5.307-4.841-11.729-7.447-18.711-6.982l-204.056,0.465
				c-11.264,0-21.876,5.306-28.3,14.988l-26.158,37.422c-10.147,14.429-16.012,32.023-16.57,49.71c0,1.024-0.559,2.7-1.024,3.724
				l-5.865,10.147c-1.583,2.699-1.024,6.423,0.559,8.564l3.724,3.724c2.141,2.699,2.141,6.423,0.559,9.122l-4.841,7.447
				c-2.141,3.165-1.583,6.982,1.024,9.589c1.024,1.023,2.141,1.582,3.165,2.141l16.012,2.7c0.559,0,8.006,0,21.411,0
				c0-29.417,24.018-53.435,53.435-53.435s53.434,24.018,53.434,53.435c0,0,0,0,0,0.559c3.259,0,6.517,0,9.868,0
				c-1.769-4.003-3.537-8.006-5.213-12.103c-2.607-6.609-3.631-12.287-2.142-17.594c1.583-5.585,5.399-8.378,9.868-11.822
				c3.63-2.142,9.123-4.282,15.174-2.606c4.375,1.21,8.191,4.747,11.636,9.401v-51.944c0-11.45,9.495-20.945,20.945-20.945l0,0
				c11.45,0,20.946,9.495,20.946,20.945v30.813c1.489-0.373,3.071-0.559,4.654-0.559c3.352,0,7.447,0.744,11.45,3.63
				c1.023,0.745,1.676,2.049,2.514,3.072c2.141-1.117,4.375-1.955,6.795-2.048c3.444-0.093,7.354,0.745,11.357,3.537
				c2.048,1.396,3.91,3.538,5.213,6.145c1.583-0.187,3.537-0.466,5.307-0.466c10.612,1.21,17.78,9.868,20.479,19.549
				c1.955,6.796,2.327,14.709,1.769,22.994c3.259,0,6.517,0,9.682,0c0-29.417,24.018-53.435,53.435-53.435
				s53.434,24.018,53.434,53.435c32.582,0,53.435,0,53.435,0c3.724-0.559,7.447-4.841,8.006-8.564l2.7-22.436
				C753.013,346.856,750.406,338.292,745.565,331.403z M458.007,286.906c-1.954,3.351-6.236,4.468-9.495,2.513l-24.203-13.963
				c-3.352-1.955-4.469-6.237-2.514-9.495c1.21-2.234,3.258-3.444,5.492-3.538c1.304-0.093,2.793,0.279,4.096,0.931l24.204,13.964
				C458.752,279.272,459.869,283.555,458.007,286.906z M488.262,267.078c0,3.817-3.165,6.982-6.981,6.982
				c-3.817,0-6.982-3.165-6.982-6.982V239.15c0-3.816,3.165-6.981,6.982-6.981c3.816,0,6.981,3.165,6.981,6.981V267.078z
				 M538.345,275.456l-24.204,13.963c-3.351,1.955-7.633,0.838-9.495-2.513c-1.954-3.352-0.838-7.634,2.514-9.496l24.204-13.963
				c1.303-0.652,2.606-0.931,3.816-0.931c2.048,0,3.91,1.024,5.679,3.538C542.813,269.219,541.696,273.501,538.345,275.456z"/>
			<path fill="#FFD702" d="M556.684,367.243c-1.769-6.236-3.91-8.75-8.192-9.401c-1.116-0.373-4.188,0.559-4.188,0.465
				c-1.955,1.862-5.027,2.327-7.541,1.21c-2.42-1.116-4.188-3.63-4.188-6.33c0-2.606-0.559-2.979-1.489-3.63
				c-3.165-1.211-4.376-1.676-6.145,2.141c-1.396,2.793-4.841,4.469-7.819,3.724c-3.072-0.744-5.399-3.724-5.399-6.796
				c0-2.792-0.651-3.071-1.489-3.724c-3.352-1.21-5.958-1.303-8.472,2.049c-1.303,2.886-4.747,4.562-7.819,3.816
				c-3.072-0.651-5.492-3.724-5.492-6.796v-44.218c0-4.003-2.979-6.982-6.982-6.982l0,0c-4.003,0-6.981,2.979-6.981,6.982v79.22
				c0,3.166-2.327,6.145-5.399,6.796c-3.071,0.745-6.423-0.931-7.819-3.724l-9.216-18.525c-2.234-4.002-3.165-5.957-6.796-7.819
				c-2.979-0.279-5.864,1.676-7.819,4.841c0,5.213,3.071,13.592,7.633,23.272c0.466,0.838,0.838,1.77,1.304,2.7
				c35.933,0,74.659,0,111.802,0C558.452,378.973,558.08,372.178,556.684,367.243z"/>
			<circle cx="367.337" cy="386.42" r="42.729"/>
			<circle cx="634.414" cy="386.42" r="42.729"/>
			<path d="M557.056,393.961c-1.582,10.333-4.841,21.225-8.843,30.254c-3.631,8.192-8.006,14.336-11.637,17.502h-56.413
				c-8.472-11.45-24.11-35.468-33.979-55.297c-5.026,0-10.054,0-14.987,0c11.264,25.042,24.482,48.78,40.309,66.933
				c1.303,1.489,3.258,2.421,5.213,2.421h62.836c1.489,0,2.979-0.466,4.189-1.396c7.261-5.399,12.753-14.15,17.314-24.483
				s8.006-22.248,9.868-33.885c0.465-3.258,0.838-6.423,1.117-9.589c-4.655,0-9.31,0-13.964,0
				C557.708,388.841,557.429,391.354,557.056,393.961z"/>
		</g>
	</g>
	<g>
		<path d="M141.685,542.068l-10.426-36.771l-10.612,36.771h-12.009l-17.036-51.572h12.474l10.798,38.912l10.799-38.912h11.45
			l10.892,38.912l10.706-38.912h11.916L153.6,542.068H141.685z"/>
		<path d="M187.485,500.084v11.171h24.855v9.682h-24.855v11.45h28.393v9.682h-40.029v-51.572h39.191v9.682h-27.555V500.084z"/>
		<path fill="#FFD702" d="M248.739,490.496c11.357,0,18.432,4.934,18.432,12.847c0,5.585-3.351,9.96-8.937,11.356
			c6.609,1.211,10.705,6.237,10.705,13.033c0,8.844-7.447,14.243-19.456,14.243h-24.482v-51.572h23.738V490.496z M236.637,511.255
			h11.45c4.375,0,7.075-2.141,7.075-5.771c0-3.537-2.7-5.492-7.075-5.492h-11.45V511.255z M236.637,532.573h11.45
			c5.492,0,8.843-2.327,8.843-6.237c0-3.724-3.351-6.051-8.843-6.051h-11.45V532.573z"/>
		<path fill="#FFD702" d="M323.025,520.472c0,13.591-8.937,22.062-23.086,22.062c-14.243,0-23.459-8.472-23.459-22.062v-29.976
			h11.636v29.976c0,7.447,4.841,11.915,11.823,11.915c6.889,0,11.45-4.468,11.45-11.915v-29.976h11.636V520.472z"/>
		<path fill="#FFD702" d="M358.214,542.068h-11.636v-16.384l-19.084-35.188h11.729l13.219,23.086l12.846-23.086h11.729
			l-18.804,34.909V542.068z"/>
		<path d="M441.438,532.015l-4.097,10.054h-11.915l22.435-51.572h12.009l22.062,51.572h-12.475l-4.096-10.054H441.438z
			 M453.445,502.598l-8.191,20.015h16.291L453.445,502.598z"/>
		<path d="M510.696,527.267h-1.116h-10.706v14.709h-11.636v-51.572h22.435c13.498,0,21.132,6.516,21.132,17.873
			c0,7.913-3.352,13.685-9.682,16.663l10.984,17.036h-13.219L510.696,527.267z M509.58,517.585c6.423,0,10.054-2.979,10.054-8.843
			c0-5.772-3.724-8.658-10.054-8.658h-10.706v17.408h10.706V517.585z"/>
		<path d="M579.025,495.522l-4.469,9.682c-5.492-3.258-11.915-5.306-16.011-5.306c-3.91,0-6.517,1.396-6.517,4.188
			c0,9.495,27.462,4.189,27.368,22.715c0,10.054-8.75,15.546-20.2,15.546c-8.472,0-16.942-3.258-22.715-8.192l4.655-9.495
			c5.306,4.748,12.847,7.727,18.245,7.727c4.748,0,7.634-1.769,7.634-4.934c0-9.682-27.462-4.096-27.462-22.342
			c0-9.31,8.006-15.267,19.922-15.267C566.645,489.938,573.812,492.172,579.025,495.522z"/>
		<path fill="#FFD702" d="M609.373,490.496c16.012,0,27.09,10.52,27.09,25.786c0,15.174-11.265,25.786-27.556,25.786h-21.41v-51.572
			H609.373z M599.133,532.201h10.52c8.657,0,14.987-6.517,14.987-15.919c0-9.495-6.609-16.012-15.453-16.012h-10.054V532.201z"/>
		<path fill="#FFD702" d="M690.642,542.068h-13.964l-12.194-17.129l-11.916,17.129h-13.591l18.524-26.345l-17.222-25.228h13.592
			l10.705,15.732l10.799-15.732h13.777l-17.129,24.669L690.642,542.068z"/>
		<path fill="#FFD702" d="M720.896,490.496c11.356,0,18.432,4.934,18.432,12.847c0,5.585-3.352,9.96-8.937,11.356
			c6.609,1.211,10.705,6.237,10.705,13.033c0,8.844-7.447,14.243-19.456,14.243h-24.482v-51.572h23.738V490.496z M708.794,511.255
			h11.45c4.376,0,7.075-2.141,7.075-5.771c0-3.537-2.7-5.492-7.075-5.492h-11.45V511.255z M708.794,532.573h11.45
			c5.492,0,8.844-2.327,8.844-6.237c0-3.724-3.352-6.051-8.844-6.051h-11.45V532.573z"/>
		<path d="M758.226,536.762c0,3.352-2.327,5.865-5.679,5.865c-3.258,0-5.679-2.514-5.679-5.865c0-3.444,2.421-5.864,5.679-5.864
			C755.898,530.99,758.226,533.317,758.226,536.762z"/>
		<path d="M811.102,498.688l-6.796,8.192c-3.538-4.096-8.657-6.702-13.405-6.702c-8.844,0-15.732,6.889-15.732,15.825
			c0,9.029,6.889,15.919,15.732,15.919c4.654,0,9.682-2.328,13.405-6.052l6.889,7.447c-5.492,5.586-13.312,9.217-20.853,9.217
			c-15.36,0-26.996-11.45-26.996-26.345s11.822-26.065,27.462-26.065C798.161,490.124,805.981,493.382,811.102,498.688z"/>
		<path d="M423.936,498.688l-6.795,8.285c-3.538-4.096-8.658-6.702-13.405-6.702c-8.844,0-15.732,6.889-15.732,15.825
			c0,9.03,6.889,15.919,15.732,15.919c4.654,0,9.682-2.327,13.405-6.051l6.889,7.447c-5.492,5.585-13.312,9.216-20.853,9.216
			c-15.36,0-26.997-11.45-26.997-26.345s11.823-26.065,27.462-26.065C411.09,490.124,418.909,493.382,423.936,498.688z"/>
		<path d="M868.725,516.282c0,14.895-11.916,26.252-27.648,26.252s-27.647-11.357-27.647-26.252
			c0-14.987,11.915-26.158,27.647-26.158S868.725,501.295,868.725,516.282z M825.251,516.282c0,9.029,7.261,16.104,15.919,16.104
			c8.657,0,15.639-7.075,15.639-16.104c0-9.03-6.981-16.012-15.639-16.012C832.512,500.271,825.251,507.159,825.251,516.282z"/>
		<path d="M921.879,542.068v-34.723l-13.684,29.51h-7.541l-13.685-29.51v34.723h-10.519v-51.572h13.032l14.988,31.558l14.987-31.558
			h12.939v51.572H921.879z"/>
	</g>
</g>
</svg>
